<svg xmlns="http://www.w3.org/2000/svg" width="800" height="280" viewBox="0 0 800 280">
  <defs>
    <linearGradient id="bg" x1="0%" y1="0%" x2="100%" y2="100%">
      <stop offset="0%" style="stop-color:#0d1117"/>
      <stop offset="100%" style="stop-color:#161b22"/>
    </linearGradient>
    <marker id="arrowhead" markerWidth="10" markerHeight="7" refX="9" refY="3.5" orient="auto">
      <polygon points="0 0, 10 3.5, 0 7" fill="#7209b7" opacity="0.8"/>
    </marker>
  </defs>
  <rect width="800" height="280" fill="url(#bg)" rx="12"/>
  <text x="400" y="265" text-anchor="middle" font-family="Segoe UI, Arial, sans-serif" font-size="11" fill="#666">Architecture · Log File Analyzer</text>
  <line x1="170" y1="80" x2="230" y2="45" stroke="#7209b7" stroke-width="1.5" marker-end="url(#arrowhead)" opacity="0.7"/>
  <line x1="170" y1="80" x2="230" y2="115" stroke="#7209b7" stroke-width="1.5" marker-end="url(#arrowhead)" opacity="0.7"/>
  <line x1="170" y1="80" x2="230" y2="185" stroke="#7209b7" stroke-width="1.5" marker-end="url(#arrowhead)" opacity="0.7"/>
  <line x1="360" y1="45" x2="420" y2="55" stroke="#7209b7" stroke-width="1.5" marker-end="url(#arrowhead)" opacity="0.7"/>
  <line x1="360" y1="115" x2="420" y2="125" stroke="#7209b7" stroke-width="1.5" marker-end="url(#arrowhead)" opacity="0.7"/>
  <line x1="360" y1="185" x2="420" y2="210" stroke="#7209b7" stroke-width="1.5" marker-end="url(#arrowhead)" opacity="0.7"/>
  <line x1="560" y1="55" x2="620" y2="115" stroke="#7209b7" stroke-width="1.5" marker-end="url(#arrowhead)" opacity="0.7"/>
  <line x1="560" y1="125" x2="620" y2="120" stroke="#7209b7" stroke-width="1.5" marker-end="url(#arrowhead)" opacity="0.7"/>
  <line x1="560" y1="210" x2="620" y2="130" stroke="#7209b7" stroke-width="1.5" marker-end="url(#arrowhead)" opacity="0.7"/>
  <rect x="50" y="50" width="120" height="60" rx="8" fill="#7209b7" stroke="none" stroke-width="0" opacity="0.9"/>
  <text x="110" y="85" text-anchor="middle" font-family="Segoe UI, Arial, sans-serif" font-size="11" font-weight="bold" fill="white">Log Files</text>
  <rect x="230" y="20" width="130" height="50" rx="8" fill="#560bad" stroke="none" stroke-width="0" opacity="0.9"/>
  <text x="295" y="50" text-anchor="middle" font-family="Segoe UI, Arial, sans-serif" font-size="11" font-weight="bold" fill="white">Log Parser</text>
  <rect x="230" y="90" width="130" height="50" rx="8" fill="#560bad" stroke="none" stroke-width="0" opacity="0.9"/>
  <text x="295" y="120" text-anchor="middle" font-family="Segoe UI, Arial, sans-serif" font-size="11" font-weight="bold" fill="white">Pattern Engine</text>
  <rect x="230" y="160" width="130" height="50" rx="8" fill="#560bad" stroke="none" stroke-width="0" opacity="0.9"/>
  <text x="295" y="190" text-anchor="middle" font-family="Segoe UI, Arial, sans-serif" font-size="11" font-weight="bold" fill="white">Statistics</text>
  <rect x="420" y="30" width="140" height="50" rx="8" fill="#480ca8" stroke="none" stroke-width="0" opacity="0.9"/>
  <text x="490" y="60" text-anchor="middle" font-family="Segoe UI, Arial, sans-serif" font-size="11" font-weight="bold" fill="white">Cluster Engine</text>
  <rect x="420" y="100" width="140" height="50" rx="8" fill="#480ca8" stroke="none" stroke-width="0" opacity="0.9"/>
  <text x="490" y="130" text-anchor="middle" font-family="Segoe UI, Arial, sans-serif" font-size="11" font-weight="bold" fill="white">Alert Engine</text>
  <rect x="420" y="180" width="140" height="60" rx="8" fill="#1a1a2e" stroke="#7209b7" stroke-width="1.5" opacity="0.9"/>
  <text x="490" y="215" text-anchor="middle" font-family="Segoe UI, Arial, sans-serif" font-size="11" font-weight="bold" fill="white">LLM Analyzer</text>
  <rect x="620" y="90" width="140" height="60" rx="8" fill="#7209b7" stroke="none" stroke-width="0" opacity="0.9"/>
  <text x="690" y="125" text-anchor="middle" font-family="Segoe UI, Arial, sans-serif" font-size="11" font-weight="bold" fill="white">Analysis Report</text>
</svg>